<svg width="26" height="25" viewBox="0 0 26 25" fill="none" xmlns="http://www.w3.org/2000/svg">
<path d="M25.2569 10.0519H24.25V10H13V15H20.0644C19.0338 17.9106 16.2644 20 13 20C8.85812 20 5.5 16.6419 5.5 12.5C5.5 8.35812 8.85812 5 13 5C14.9119 5 16.6513 5.72125 17.9756 6.89937L21.5112 3.36375C19.2787 1.28312 16.2925 0 13 0C6.09688 0 0.5 5.59688 0.5 12.5C0.5 19.4031 6.09688 25 13 25C19.9031 25 25.5 19.4031 25.5 12.5C25.5 11.6619 25.4137 10.8438 25.2569 10.0519Z" fill="#FFC107"/>
<path d="M1.94122 6.68188L6.0481 9.69375C7.15935 6.9425 9.8506 5 13 5C14.9118 5 16.6512 5.72125 17.9756 6.89937L21.5112 3.36375C19.2787 1.28312 16.2925 0 13 0C8.19872 0 4.03497 2.71062 1.94122 6.68188Z" fill="#FF3D00"/>
<path d="M13 25.0004C16.2288 25.0004 19.1625 23.7648 21.3806 21.7554L17.5119 18.4817C16.2569 19.4323 14.6969 20.0004 13 20.0004C9.74876 20.0004 6.98814 17.9273 5.94814 15.0342L1.87189 18.1748C3.94064 22.2229 8.14189 25.0004 13 25.0004Z" fill="#4CAF50"/>
<path d="M25.2569 10.0519H24.25V10H13V15H20.0644C19.5694 16.3981 18.67 17.6037 17.51 18.4819C17.5106 18.4812 17.5113 18.4812 17.5119 18.4806L21.3806 21.7544C21.1069 22.0031 25.5 18.75 25.5 12.5C25.5 11.6619 25.4137 10.8438 25.2569 10.0519Z" fill="#1976D2"/>
</svg>
