<svg width="268" height="62" viewBox="0 0 268 62" fill="none" xmlns="http://www.w3.org/2000/svg">
<circle cx="29.9194" cy="27.2303" r="7.81817" fill="#EA1C29"/>
<circle cx="29.0595" cy="27.23" r="4.76908" fill="white"/>
<circle cx="15.791" cy="33.429" r="5.52856" fill="#D15926"/>
<circle cx="15.1831" cy="33.4286" r="3.37242" fill="white"/>
<circle cx="24.7261" cy="39.3483" r="3.07142" fill="#8D1212"/>
<circle cx="24.3884" cy="39.3482" r="1.87357" fill="white"/>
<path d="M54.86 48.916V14.356H75.668V20.14H60.644V28.756H72.788V34.516H60.644V48.916H54.86ZM84.5859 49.636C81.9619 49.636 79.6579 49.068 77.6739 47.932C75.6899 46.796 74.1379 45.22 73.0179 43.204C71.9139 41.188 71.3619 38.868 71.3619 36.244C71.3619 33.412 71.9059 30.956 72.9939 28.876C74.0819 26.78 75.5939 25.156 77.5299 24.004C79.4659 22.852 81.7059 22.276 84.2499 22.276C86.9379 22.276 89.2179 22.908 91.0899 24.172C92.9779 25.42 94.3779 27.188 95.2899 29.476C96.2019 31.764 96.5459 34.46 96.3219 37.564H90.5859V35.452C90.5699 32.636 90.0739 30.58 89.0979 29.284C88.1219 27.988 86.5859 27.34 84.4899 27.34C82.1219 27.34 80.3619 28.076 79.2099 29.548C78.0579 31.004 77.4819 33.14 77.4819 35.956C77.4819 38.58 78.0579 40.612 79.2099 42.052C80.3619 43.492 82.0419 44.212 84.2499 44.212C85.6739 44.212 86.8979 43.9 87.9219 43.276C88.9619 42.636 89.7619 41.716 90.3219 40.516L96.0339 42.244C95.0419 44.58 93.5059 46.396 91.4259 47.692C89.3619 48.988 87.0819 49.636 84.5859 49.636ZM75.6579 37.564V33.196H93.4899V37.564H75.6579ZM106.981 49.636C104.357 49.636 102.053 49.068 100.069 47.932C98.0849 46.796 96.5329 45.22 95.4129 43.204C94.3089 41.188 93.7569 38.868 93.7569 36.244C93.7569 33.412 94.3009 30.956 95.3889 28.876C96.4769 26.78 97.9889 25.156 99.9249 24.004C101.861 22.852 104.101 22.276 106.645 22.276C109.333 22.276 111.613 22.908 113.485 24.172C115.373 25.42 116.773 27.188 117.685 29.476C118.597 31.764 118.941 34.46 118.717 37.564H112.981V35.452C112.965 32.636 112.469 30.58 111.493 29.284C110.517 27.988 108.981 27.34 106.885 27.34C104.517 27.34 102.757 28.076 101.605 29.548C100.453 31.004 99.8769 33.14 99.8769 35.956C99.8769 38.58 100.453 40.612 101.605 42.052C102.757 43.492 104.437 44.212 106.645 44.212C108.069 44.212 109.293 43.9 110.317 43.276C111.357 42.636 112.157 41.716 112.717 40.516L118.429 42.244C117.437 44.58 115.901 46.396 113.821 47.692C111.757 48.988 109.477 49.636 106.981 49.636ZM98.0529 37.564V33.196H115.885V37.564H98.0529ZM127.984 49.636C125.6 49.636 123.52 49.036 121.744 47.836C119.968 46.636 118.592 45.004 117.616 42.94C116.64 40.876 116.152 38.548 116.152 35.956C116.152 33.332 116.64 30.996 117.616 28.948C118.608 26.884 120.008 25.26 121.816 24.076C123.624 22.876 125.752 22.276 128.2 22.276C130.664 22.276 132.728 22.876 134.392 24.076C136.072 25.26 137.344 26.884 138.208 28.948C139.072 31.012 139.504 33.348 139.504 35.956C139.504 38.532 139.072 40.86 138.208 42.94C137.344 45.004 136.056 46.636 134.344 47.836C132.632 49.036 130.512 49.636 127.984 49.636ZM128.872 44.452C130.424 44.452 131.672 44.1 132.616 43.396C133.576 42.676 134.272 41.676 134.704 40.396C135.152 39.116 135.376 37.636 135.376 35.956C135.376 34.26 135.152 32.78 134.704 31.516C134.272 30.236 133.592 29.244 132.664 28.54C131.736 27.82 130.536 27.46 129.064 27.46C127.512 27.46 126.232 27.844 125.224 28.612C124.216 29.364 123.472 30.388 122.992 31.684C122.512 32.964 122.272 34.388 122.272 35.956C122.272 37.54 122.504 38.98 122.968 40.276C123.448 41.556 124.176 42.572 125.152 43.324C126.128 44.076 127.368 44.452 128.872 44.452ZM135.376 48.916V30.724H134.656V14.356H140.488V48.916H135.376ZM153.193 49.636C150.665 49.636 148.545 49.036 146.833 47.836C145.121 46.636 143.833 45.004 142.969 42.94C142.105 40.86 141.673 38.532 141.673 35.956C141.673 33.348 142.105 31.012 142.969 28.948C143.833 26.884 145.097 25.26 146.761 24.076C148.441 22.876 150.513 22.276 152.977 22.276C155.425 22.276 157.545 22.876 159.337 24.076C161.145 25.26 162.545 26.884 163.537 28.948C164.529 30.996 165.025 33.332 165.025 35.956C165.025 38.548 164.537 40.876 163.561 42.94C162.585 45.004 161.209 46.636 159.433 47.836C157.657 49.036 155.577 49.636 153.193 49.636ZM140.689 48.916V14.356H146.521V30.724H145.801V48.916H140.689ZM152.305 44.452C153.809 44.452 155.049 44.076 156.025 43.324C157.001 42.572 157.721 41.556 158.185 40.276C158.665 38.98 158.905 37.54 158.905 35.956C158.905 34.388 158.665 32.964 158.185 31.684C157.705 30.388 156.961 29.364 155.953 28.612C154.945 27.844 153.665 27.46 152.113 27.46C150.641 27.46 149.441 27.82 148.513 28.54C147.585 29.244 146.897 30.236 146.449 31.516C146.017 32.78 145.801 34.26 145.801 35.956C145.801 37.636 146.017 39.116 146.449 40.396C146.897 41.676 147.593 42.676 148.537 43.396C149.497 44.1 150.753 44.452 152.305 44.452ZM171.083 49.636C169.211 49.636 167.627 49.284 166.331 48.58C165.035 47.86 164.051 46.908 163.379 45.724C162.723 44.54 162.395 43.236 162.395 41.812C162.395 40.564 162.603 39.444 163.019 38.452C163.435 37.444 164.075 36.58 164.939 35.86C165.803 35.124 166.923 34.524 168.299 34.06C169.339 33.724 170.555 33.42 171.947 33.148C173.355 32.876 174.875 32.628 176.507 32.404C178.155 32.164 179.875 31.908 181.667 31.636L179.603 32.812C179.619 31.02 179.219 29.7 178.403 28.852C177.587 28.004 176.211 27.58 174.275 27.58C173.107 27.58 171.979 27.852 170.891 28.396C169.803 28.94 169.043 29.876 168.611 31.204L163.331 29.548C163.971 27.356 165.187 25.596 166.979 24.268C168.787 22.94 171.219 22.276 174.275 22.276C176.579 22.276 178.603 22.652 180.347 23.404C182.107 24.156 183.411 25.388 184.259 27.1C184.723 28.012 185.003 28.948 185.099 29.908C185.195 30.852 185.243 31.884 185.243 33.004V48.916H180.179V43.3L181.019 44.212C179.851 46.084 178.483 47.46 176.915 48.34C175.363 49.204 173.419 49.636 171.083 49.636ZM172.235 45.028C173.547 45.028 174.667 44.796 175.595 44.332C176.523 43.868 177.259 43.3 177.803 42.628C178.363 41.956 178.739 41.324 178.931 40.732C179.235 39.996 179.403 39.156 179.435 38.212C179.483 37.252 179.507 36.476 179.507 35.884L181.283 36.412C179.539 36.684 178.043 36.924 176.795 37.132C175.547 37.34 174.475 37.54 173.579 37.732C172.683 37.908 171.891 38.108 171.203 38.332C170.531 38.572 169.963 38.852 169.499 39.172C169.035 39.492 168.675 39.86 168.419 40.276C168.179 40.692 168.059 41.18 168.059 41.74C168.059 42.38 168.219 42.948 168.539 43.444C168.859 43.924 169.323 44.308 169.931 44.596C170.555 44.884 171.323 45.028 172.235 45.028ZM196.267 49.636C193.595 49.636 191.315 49.044 189.427 47.86C187.539 46.66 186.091 45.028 185.083 42.964C184.091 40.9 183.587 38.564 183.571 35.956C183.587 33.3 184.107 30.948 185.131 28.9C186.171 26.836 187.643 25.22 189.547 24.052C191.451 22.868 193.715 22.276 196.339 22.276C199.283 22.276 201.771 23.02 203.803 24.508C205.851 25.98 207.187 27.996 207.811 30.556L202.051 32.116C201.603 30.724 200.859 29.644 199.819 28.876C198.779 28.092 197.595 27.7 196.267 27.7C194.763 27.7 193.523 28.06 192.547 28.78C191.571 29.484 190.851 30.46 190.387 31.708C189.923 32.956 189.691 34.372 189.691 35.956C189.691 38.42 190.243 40.412 191.347 41.932C192.451 43.452 194.091 44.212 196.267 44.212C197.803 44.212 199.011 43.86 199.891 43.156C200.787 42.452 201.459 41.436 201.907 40.108L207.811 41.428C207.011 44.068 205.611 46.1 203.611 47.524C201.611 48.932 199.163 49.636 196.267 49.636ZM206.093 48.916L206.141 14.356H211.997V35.476L221.477 22.996H228.701L218.645 35.956L229.565 48.916H221.909L211.997 36.436V48.916H206.093ZM236.804 49.636C234.18 49.636 231.876 49.068 229.892 47.932C227.908 46.796 226.356 45.22 225.236 43.204C224.132 41.188 223.58 38.868 223.58 36.244C223.58 33.412 224.124 30.956 225.212 28.876C226.3 26.78 227.812 25.156 229.748 24.004C231.684 22.852 233.924 22.276 236.468 22.276C239.156 22.276 241.436 22.908 243.308 24.172C245.196 25.42 246.596 27.188 247.508 29.476C248.42 31.764 248.764 34.46 248.54 37.564H242.804V35.452C242.788 32.636 242.292 30.58 241.316 29.284C240.34 27.988 238.804 27.34 236.708 27.34C234.34 27.34 232.58 28.076 231.428 29.548C230.276 31.004 229.7 33.14 229.7 35.956C229.7 38.58 230.276 40.612 231.428 42.052C232.58 43.492 234.26 44.212 236.468 44.212C237.892 44.212 239.116 43.9 240.14 43.276C241.18 42.636 241.98 41.716 242.54 40.516L248.252 42.244C247.26 44.58 245.724 46.396 243.644 47.692C241.58 48.988 239.3 49.636 236.804 49.636ZM227.876 37.564V33.196H245.708V37.564H227.876ZM247.415 48.916V22.996H252.527V29.308L251.903 28.492C252.223 27.628 252.647 26.844 253.175 26.14C253.719 25.42 254.367 24.828 255.119 24.364C255.759 23.932 256.463 23.596 257.231 23.356C258.015 23.1 258.815 22.948 259.631 22.9C260.447 22.836 261.239 22.868 262.007 22.996V28.396C261.239 28.172 260.351 28.1 259.343 28.18C258.351 28.26 257.455 28.54 256.655 29.02C255.855 29.452 255.199 30.004 254.687 30.676C254.191 31.348 253.823 32.116 253.583 32.98C253.343 33.828 253.223 34.748 253.223 35.74V48.916H247.415Z" fill="black"/>
</svg>
